<?xml version="1.0" standalone="no"?>
<!DOCTYPE svg PUBLIC "-//W3C//DTD SVG 20010904//EN"
 "http://www.w3.org/TR/2001/REC-SVG-20010904/DTD/svg10.dtd">
<svg version="1.0" xmlns="http://www.w3.org/2000/svg"
 width="761.000000pt" height="719.000000pt" viewBox="0 0 761.000000 719.000000"
 preserveAspectRatio="xMidYMid meet">

<g transform="translate(0.000000,719.000000) scale(0.100000,-0.100000)"
fill="#000000" stroke="none">
<path d="M970 5805 l0 -335 215 0 215 0 0 70 0 70 -130 0 -130 0 0 65 0 65
100 0 100 0 0 70 0 70 -100 0 -100 0 0 60 0 60 125 0 125 0 0 70 0 70 -210 0
-210 0 0 -335z"/>
<path d="M1765 5946 c-17 -7 -43 -27 -57 -45 -15 -17 -29 -31 -32 -31 -3 0 -6
18 -6 40 l0 40 -75 0 -75 0 0 -240 0 -240 79 0 79 0 4 130 3 130 31 31 c23 23
44 33 78 36 l46 6 0 78 c0 75 -1 79 -22 79 -13 -1 -37 -7 -53 -14z"/>
<path d="M2045 5953 c-39 -10 -115 -46 -115 -55 0 -5 12 -31 26 -59 20 -40 29
-49 42 -43 84 35 128 42 163 24 10 -6 19 -19 19 -29 0 -15 -11 -19 -62 -24
-139 -13 -218 -68 -218 -150 0 -61 28 -108 80 -134 57 -30 105 -29 166 2 27
14 50 25 52 25 1 0 2 -9 2 -20 0 -18 7 -20 70 -20 l70 0 0 180 c0 192 -4 213
-52 257 -38 36 -92 53 -160 52 -35 -1 -72 -4 -83 -6z m135 -296 c0 -24 -31
-59 -62 -70 -10 -3 -27 2 -40 13 -29 24 -16 50 33 67 53 19 69 16 69 -10z"/>
<path d="M2552 5947 c-18 -5 -48 -27 -67 -49 -28 -31 -35 -46 -35 -81 0 -77
50 -127 173 -172 26 -10 47 -24 47 -31 0 -32 -89 -24 -146 13 -21 13 -24 11
-53 -37 -17 -28 -31 -55 -31 -60 0 -18 104 -62 159 -67 78 -7 138 11 183 57
34 33 38 43 38 86 0 75 -26 109 -115 150 -40 19 -78 34 -84 34 -17 0 -24 22
-10 31 23 15 73 10 112 -10 l38 -19 24 49 c14 26 25 55 25 62 0 8 -22 24 -49
36 -54 23 -151 27 -209 8z"/>
<path d="M3155 5948 c-11 -6 -32 -22 -47 -36 l-28 -26 0 32 0 32 -75 0 -75 0
0 -240 0 -240 79 0 79 0 4 139 c3 123 5 143 24 168 26 34 72 43 91 17 9 -13
13 -61 13 -171 l0 -153 79 0 79 0 4 139 c3 123 5 143 24 168 14 18 32 29 52
31 45 5 52 -21 52 -194 l0 -144 81 0 81 0 -4 193 c-2 162 -6 197 -21 225 -25
46 -72 72 -129 72 -58 0 -95 -13 -131 -48 l-27 -26 -16 22 c-8 12 -28 29 -44
37 -34 17 -116 19 -145 3z"/>
<path d="M4485 5947 c-77 -30 -105 -66 -105 -134 0 -71 56 -127 163 -164 21
-7 43 -20 49 -27 31 -37 -69 -38 -128 -1 l-32 19 -31 -48 c-17 -27 -31 -54
-31 -60 0 -20 101 -64 159 -69 118 -11 209 43 218 130 10 87 -21 125 -145 178
-37 15 -67 34 -67 41 0 22 72 22 117 -1 l40 -19 24 54 c13 30 24 58 24 63 0 5
-22 18 -49 30 -56 24 -156 27 -206 8z"/>
<path d="M3792 5758 c3 -171 5 -197 23 -226 50 -82 193 -96 267 -25 l28 27 0
-33 0 -32 78 3 77 3 3 238 2 237 -85 0 -85 0 0 -130 c0 -167 -19 -210 -94
-210 -47 0 -56 29 -56 192 l0 148 -81 0 -81 0 4 -192z"/>
<path d="M967 5134 c-12 -12 -8 -445 4 -489 18 -63 62 -118 121 -150 48 -27
61 -30 148 -30 87 0 100 3 149 30 66 36 106 89 121 158 7 32 10 134 8 267 l-3
215 -77 3 -78 3 0 -208 c0 -217 -7 -268 -40 -298 -41 -37 -148 -26 -177 17 -4
7 -10 119 -13 248 l-5 235 -75 3 c-42 1 -79 0 -83 -4z"/>
<path d="M2277 5134 c-4 -4 -7 -34 -7 -66 l0 -58 80 0 81 0 -3 63 -3 62 -70 3
c-39 1 -74 0 -78 -4z"/>
<path d="M4527 5134 c-4 -4 -7 -34 -7 -66 l0 -58 80 0 81 0 -3 63 -3 62 -70 3
c-39 1 -74 0 -78 -4z"/>
<path d="M4850 5010 l0 -70 -35 0 -36 0 3 -62 c3 -60 4 -63 31 -66 l27 -3 0
-92 c0 -51 5 -108 10 -128 20 -72 99 -119 200 -119 l60 0 0 70 0 70 -30 0
c-19 0 -40 9 -55 25 -22 21 -25 33 -25 100 l0 75 50 0 50 0 0 64 0 65 -47 3
-48 3 -3 68 -3 67 -74 0 -75 0 0 -70z"/>
<path d="M1882 4939 c-24 -12 -47 -29 -50 -38 -5 -11 -8 -7 -12 14 -5 30 -5
30 -83 33 l-77 3 0 -241 0 -240 80 0 80 0 0 113 c0 131 11 178 47 207 34 26
89 27 103 1 5 -11 10 -86 10 -170 l0 -151 80 0 80 0 0 183 c0 157 -3 188 -19
224 -36 78 -147 107 -239 62z"/>
<path d="M3224 4944 c-187 -68 -203 -347 -27 -451 43 -25 57 -28 138 -28 72 0
99 4 135 22 76 37 75 34 45 94 -15 30 -29 55 -30 57 -2 2 -21 -6 -44 -17 -25
-13 -59 -21 -91 -21 -44 0 -56 5 -81 29 -16 16 -29 34 -29 40 0 7 50 11 151
11 l151 0 -4 69 c-4 86 -42 154 -103 185 -51 26 -154 31 -211 10z m136 -126
c35 -38 26 -48 -45 -48 -73 0 -84 14 -39 49 34 27 58 27 84 -1z"/>
<path d="M3894 4946 c-17 -8 -45 -31 -62 -52 l-32 -39 0 48 0 47 -75 0 -75 0
0 -240 0 -240 80 0 80 0 0 110 c0 74 5 122 14 145 18 41 69 75 114 75 l32 0 0
80 c0 76 -1 80 -22 80 -13 -1 -37 -7 -54 -14z"/>
<path d="M4145 4946 c-45 -17 -91 -63 -101 -101 -19 -77 34 -147 145 -190 52
-21 71 -33 69 -44 -5 -23 -89 -18 -131 8 l-33 20 -33 -56 c-37 -61 -39 -56 34
-96 56 -30 182 -31 240 -1 53 27 89 95 79 149 -12 65 -59 102 -198 155 -23 9
-26 13 -16 25 17 21 69 19 115 -5 21 -11 39 -19 39 -17 1 1 14 28 28 59 l28
58 -43 21 c-54 28 -165 35 -222 15z"/>
<path d="M2270 4710 l0 -240 80 0 80 0 0 240 0 240 -80 0 -80 0 0 -240z"/>
<path d="M2510 4941 c0 -8 99 -298 141 -413 l21 -58 98 0 97 0 78 228 c43 125
80 233 83 240 3 10 -15 12 -84 10 l-87 -3 -42 -147 c-38 -136 -55 -182 -55
-148 0 8 -19 79 -42 157 l-41 143 -84 0 c-45 0 -83 -4 -83 -9z"/>
<path d="M4520 4710 l0 -240 80 0 80 0 0 240 0 240 -80 0 -80 0 0 -240z"/>
<path d="M5150 4944 c0 -3 45 -110 100 -237 95 -220 99 -232 84 -254 -22 -35
-59 -49 -94 -36 -27 10 -28 9 -53 -48 l-26 -59 22 -12 c94 -50 224 -9 274 87
14 25 213 552 213 562 0 2 -40 3 -89 3 l-88 0 -33 -127 c-34 -132 -49 -174
-50 -140 0 10 -18 74 -41 142 l-40 125 -90 0 c-49 0 -89 -3 -89 -6z"/>
<path d="M970 3800 l0 -330 85 0 85 0 0 111 0 110 38 -3 c36 -3 38 -5 92 -110
l55 -108 93 0 93 0 -12 23 c-7 12 -41 73 -76 136 l-63 113 25 20 c77 60 92
213 29 296 -47 61 -86 72 -276 72 l-168 0 0 -330z m297 168 c13 -12 23 -32 23
-44 0 -60 -42 -94 -116 -94 l-34 0 0 80 0 80 52 0 c39 0 57 -5 75 -22z"/>
<path d="M4290 4030 c0 -55 -2 -100 -4 -100 -2 0 -20 7 -39 15 -81 34 -185 9
-244 -58 -41 -47 -57 -97 -57 -182 -1 -132 72 -230 178 -242 63 -7 110 4 146
33 l30 26 0 -26 c0 -26 1 -26 75 -26 l75 0 0 330 0 330 -80 0 -80 0 0 -100z
m-34 -233 c20 -18 28 -35 31 -73 6 -62 -14 -106 -57 -124 -64 -27 -120 26
-120 114 0 91 82 138 146 83z"/>
<path d="M2240 4010 l0 -70 -35 0 -36 0 3 -62 c3 -63 3 -63 36 -66 l32 -3 0
-113 c0 -101 2 -117 23 -146 29 -44 71 -68 141 -81 89 -16 96 -10 96 72 0 69
0 69 -28 69 -15 0 -38 7 -50 16 -20 14 -22 24 -22 99 l0 84 48 3 47 3 3 63 3
62 -51 0 -50 0 0 70 0 70 -80 0 -80 0 0 -70z"/>
<path d="M2640 4010 l0 -70 -30 0 -30 0 0 -65 0 -65 29 0 29 0 4 -117 c3 -104
6 -122 26 -151 30 -41 68 -61 144 -73 93 -15 99 -10 96 69 l-3 67 -39 6 c-55
9 -66 29 -66 121 l0 78 50 0 50 0 0 65 0 65 -50 0 -50 0 0 70 0 70 -80 0 -80
0 0 -70z"/>
<path d="M1737 3942 c-105 -38 -167 -125 -167 -235 0 -140 96 -235 246 -245
88 -6 154 14 211 63 119 102 106 303 -25 386 -83 52 -175 63 -265 31z m166
-142 c30 -24 49 -79 40 -120 -8 -44 -55 -82 -101 -84 -52 -1 -88 25 -103 73
-15 50 -6 86 31 122 36 36 94 40 133 9z"/>
<path d="M3148 3949 c-43 -12 -112 -69 -133 -110 -65 -125 -25 -277 91 -345
65 -38 175 -45 255 -15 94 36 96 38 64 102 -15 30 -29 55 -30 57 -2 2 -20 -5
-42 -16 -56 -28 -91 -34 -129 -22 -35 12 -78 56 -68 71 3 5 70 9 150 9 142 0
144 0 145 23 7 98 -31 185 -97 223 -51 30 -144 40 -206 23z m116 -130 c45 -35
34 -49 -39 -49 -50 0 -65 3 -65 14 0 16 46 56 65 56 7 0 24 -9 39 -21z"/>
<path d="M3804 3941 c-22 -10 -50 -31 -62 -45 l-21 -27 -3 38 -3 38 -77 3 -78
3 0 -241 0 -240 80 0 80 0 0 110 c0 160 25 204 120 217 l40 6 0 78 c0 90 -4
93 -76 60z"/>
<path d="M4685 3946 c-43 -14 -105 -44 -105 -51 0 -3 12 -29 27 -59 l26 -55
37 19 c57 29 106 35 135 16 44 -29 31 -41 -55 -54 -127 -18 -187 -58 -197
-130 -8 -56 12 -108 55 -140 30 -23 45 -27 103 -27 54 0 73 4 98 23 37 27 41
27 41 2 0 -18 7 -20 75 -20 l75 0 0 145 c0 186 -11 239 -59 285 -60 57 -163
76 -256 46z m145 -293 c-1 -56 -96 -95 -114 -48 -14 36 20 63 82 64 24 1 32
-3 32 -16z"/>
<path d="M5360 3949 c-14 -6 -37 -22 -52 -36 l-28 -27 0 32 0 32 -80 0 -80 0
0 -240 0 -240 80 0 80 0 0 103 c1 120 13 183 42 215 25 26 73 30 82 6 3 -9 6
-85 6 -170 l0 -154 80 0 80 0 0 108 c1 126 10 175 41 208 26 28 74 32 83 8 3
-9 6 -85 6 -170 l0 -154 80 0 80 0 0 188 c0 204 -7 235 -61 275 -56 41 -162
30 -214 -22 l-29 -28 -20 24 c-36 47 -117 65 -176 42z"/>
<path d="M3403 2780 c-142 -22 -330 -106 -485 -217 -154 -110 -367 -331 -516
-535 -42 -57 -43 -57 -144 -88 -742 -225 -1213 -445 -1283 -600 -19 -41 -19
-43 0 -78 25 -46 89 -82 157 -88 65 -6 102 11 106 47 3 27 -6 34 -95 69 -45
17 -42 41 12 88 93 82 416 220 862 368 139 46 254 84 257 84 2 0 -9 -31 -25
-69 -43 -102 -62 -194 -63 -306 -1 -170 44 -294 143 -388 101 -96 199 -132
361 -130 163 1 311 52 524 177 90 53 114 80 83 92 -7 2 -61 -18 -120 -46 -189
-89 -273 -113 -419 -118 -109 -4 -137 -1 -195 17 -260 80 -324 382 -158 746
l33 73 128 31 c158 38 291 58 437 67 138 8 210 -4 300 -52 54 -28 72 -33 83
-23 20 17 17 33 -12 68 -36 43 -105 81 -173 97 -114 27 -370 11 -604 -39 -37
-8 -67 -11 -65 -7 9 26 145 184 235 275 175 175 349 294 513 350 112 38 202
48 334 36 75 -8 123 -8 140 -1 53 20 21 61 -64 83 -71 19 -221 28 -287 17z"/>
<path d="M4949 2267 c-24 -16 -47 -49 -79 -113 -25 -50 -61 -113 -82 -140 -84
-113 -260 -254 -319 -254 -36 0 -55 29 -64 97 -4 29 -16 64 -27 79 -20 24 -26
26 -84 22 -166 -10 -304 -190 -215 -279 25 -24 38 -29 79 -29 55 0 67 9 101
78 26 51 49 54 86 10 37 -45 62 -57 115 -58 34 0 56 8 90 30 90 60 101 37 60
-116 -36 -137 -37 -149 -5 -170 36 -24 63 -10 76 39 34 130 108 332 154 425
66 131 123 197 207 242 72 38 78 44 78 85 0 36 -8 48 -37 64 -36 18 -97 13
-134 -12z m-699 -427 c-14 -26 -78 -80 -95 -80 -34 0 -3 59 47 90 36 22 62 17
48 -10z"/>
<path d="M3699 2025 c-64 -23 -119 -55 -119 -69 0 -8 8 -24 19 -37 l19 -23 69
32 c72 33 117 40 129 20 7 -11 -17 -35 -153 -155 -120 -105 -140 -185 -56
-220 91 -38 353 38 353 102 0 26 -20 26 -105 0 -104 -32 -163 -36 -178 -14
-14 22 9 51 101 124 148 119 172 167 113 226 -27 26 -36 29 -93 28 -35 0 -79
-6 -99 -14z"/>
<path d="M6282 2014 c-36 -19 -54 -46 -72 -113 -15 -56 -47 -85 -118 -105 -62
-17 -178 -21 -200 -7 -8 5 -22 39 -33 77 -29 106 -82 140 -145 92 -16 -12 -66
-57 -110 -100 -45 -43 -88 -78 -96 -78 -28 0 -51 37 -44 70 3 16 9 44 12 60 7
35 -17 80 -44 80 -30 0 -74 -34 -167 -128 -122 -123 -169 -133 -190 -40 -5 25
-16 53 -24 62 -35 42 -121 -2 -121 -63 0 -52 111 -171 160 -171 53 0 99 26
163 91 37 38 74 69 82 69 19 0 45 -28 45 -49 0 -32 46 -64 99 -69 71 -6 94 2
157 59 49 45 60 50 88 45 20 -4 47 -23 76 -56 65 -72 77 -74 244 -49 206 31
214 36 250 160 8 30 25 64 36 74 20 18 24 18 48 4 23 -13 27 -22 30 -68 2 -38
-3 -65 -19 -99 -32 -68 -140 -168 -247 -231 -103 -61 -125 -81 -116 -105 23
-60 252 59 381 198 91 99 126 198 103 294 -17 75 -55 105 -133 109 -44 3 -72
-1 -95 -13z"/>
</g>
</svg>
