<?xml version="1.0" standalone="no"?>
<!DOCTYPE svg PUBLIC "-//W3C//DTD SVG 20010904//EN"
 "http://www.w3.org/TR/2001/REC-SVG-20010904/DTD/svg10.dtd">
<svg version="1.0" xmlns="http://www.w3.org/2000/svg"
 width="638.000000pt" height="638.000000pt" viewBox="0 0 638.000000 638.000000"
 preserveAspectRatio="xMidYMid meet">

<g transform="translate(0.000000,638.000000) scale(0.100000,-0.100000)"
fill="#000000" stroke="none">
<path d="M20 3190 l0 -3170 3170 0 3170 0 0 3170 0 3170 -3170 0 -3170 0 0
-3170z m1610 220 l0 -1740 310 0 310 0 0 -220 0 -220 -520 0 -520 0 0 1953 c0
1075 3 1957 7 1960 3 4 98 7 210 7 l203 0 0 -1740z m1988 1523 l-3 -218 -125
-6 c-100 -5 -138 -11 -192 -32 -141 -54 -258 -158 -297 -263 -42 -111 -52
-264 -25 -392 36 -176 158 -435 371 -785 188 -311 258 -458 308 -650 104 -397
8 -833 -239 -1082 -185 -187 -412 -275 -708 -275 l-98 0 0 214 0 213 104 7
c129 8 199 26 289 73 191 100 268 260 254 523 -12 219 -105 433 -413 951 -178
299 -231 413 -280 599 -35 132 -44 372 -19 520 57 346 237 595 527 729 133 62
259 87 446 90 l102 1 -2 -217z m1562 -3 l0 -220 -315 0 -315 0 0 -620 0 -620
293 -2 292 -3 3 -232 2 -233 -295 0 -295 0 0 -665 0 -665 315 0 315 0 0 -220
0 -220 -530 0 -530 0 0 1953 c0 1075 3 1957 7 1960 3 4 242 7 530 7 l523 0 0
-220z"/>
</g>
</svg>
